<svg width="16" height="16" viewBox="0 0 16 16" fill="none" xmlns="http://www.w3.org/2000/svg">
<mask id="mask0_482_5634" style="mask-type:luminance" maskUnits="userSpaceOnUse" x="0" y="0" width="16" height="16">
<path d="M12.8 0H3.2C1.43269 0 0 1.43269 0 3.2V12.8C0 14.5673 1.43269 16 3.2 16H12.8C14.5673 16 16 14.5673 16 12.8V3.2C16 1.43269 14.5673 0 12.8 0Z" fill="white"/>
</mask>
<g mask="url(#mask0_482_5634)">
<path d="M12.8 0H3.2C1.43269 0 0 1.43269 0 3.2V12.8C0 14.5673 1.43269 16 3.2 16H12.8C14.5673 16 16 14.5673 16 12.8V3.2C16 1.43269 14.5673 0 12.8 0Z" fill="#383B41"/>
<path d="M12.7992 13.7601C12.7992 11.1091 10.6502 8.96008 7.99922 8.96008C5.34825 8.96008 3.19922 11.1091 3.19922 13.7601V17.1521C3.19922 19.803 5.34825 21.9521 7.99922 21.9521C10.6502 21.9521 12.7992 19.803 12.7992 17.1521V13.7601Z" fill="url(#paint0_linear_482_5634)"/>
<path d="M8.03085 7.87319C9.53374 7.85618 10.7383 6.62407 10.7213 5.12118C10.7043 3.61829 9.47215 2.41375 7.96926 2.43076C6.46638 2.44776 5.26183 3.67988 5.27884 5.18277C5.29585 6.68565 6.52796 7.8902 8.03085 7.87319Z" fill="#E2E9FF"/>
<path d="M8.72241 3.73003C8.76481 3.61538 8.92695 3.61538 8.96938 3.73003L9.1361 4.18053C9.14941 4.21656 9.17783 4.24498 9.21389 4.25832L9.66439 4.42501C9.77901 4.46744 9.77901 4.62959 9.66439 4.67202L9.21389 4.83871C9.17783 4.85205 9.14941 4.88047 9.1361 4.91653L8.96938 5.36703C8.92695 5.48165 8.76481 5.48165 8.72241 5.36703L8.55569 4.91653C8.54234 4.88047 8.51393 4.85205 8.47789 4.83871L8.0274 4.67202C7.91274 4.62959 7.91274 4.46744 8.0274 4.42501L8.47789 4.25832C8.51393 4.24498 8.54234 4.21656 8.55569 4.18053L8.72241 3.73003Z" fill="#3E6FFF"/>
</g>
<defs>
<linearGradient id="paint0_linear_482_5634" x1="7.99922" y1="8.96008" x2="7.99922" y2="21.9521" gradientUnits="userSpaceOnUse">
<stop offset="0.245" stop-color="#E2E9FF"/>
<stop offset="1" stop-color="#8BA8FF"/>
</linearGradient>
</defs>
</svg>
