<svg width="109" height="26" viewBox="0 0 109 26" fill="none" xmlns="http://www.w3.org/2000/svg">
<g clip-path="url(#clip0_454_1562)">
<mask id="mask0_454_1562" style="mask-type:luminance" maskUnits="userSpaceOnUse" x="0" y="0" width="26" height="26">
<path d="M20.8 0H5.2C2.32812 0 0 2.32812 0 5.2V20.8C0 23.6719 2.32812 26 5.2 26H20.8C23.6719 26 26 23.6719 26 20.8V5.2C26 2.32812 23.6719 0 20.8 0Z" fill="white"/>
</mask>
<g mask="url(#mask0_454_1562)">
<path d="M20.8 0H5.2C2.32812 0 0 2.32812 0 5.2V20.8C0 23.6719 2.32812 26 5.2 26H20.8C23.6719 26 26 23.6719 26 20.8V5.2C26 2.32812 23.6719 0 20.8 0Z" fill="#383B41"/>
<path d="M20.7992 22.3601C20.7992 18.0522 17.307 14.5601 12.9992 14.5601C8.6914 14.5601 5.19922 18.0522 5.19922 22.3601V27.8721C5.19922 32.1799 8.6914 35.6721 12.9992 35.6721C17.307 35.6721 20.7992 32.1799 20.7992 27.8721V22.3601Z" fill="url(#paint0_linear_454_1562)"/>
<path d="M13.0494 12.7939C15.4916 12.7663 17.449 10.7641 17.4213 8.3219C17.3937 5.87971 15.3915 3.92233 12.9493 3.94996C10.5071 3.9776 8.54975 5.97979 8.57738 8.42198C8.60502 10.8642 10.6072 12.8216 13.0494 12.7939Z" fill="#E2E9FF"/>
<path d="M14.1734 6.06125C14.2423 5.87493 14.5058 5.87493 14.5748 6.06125L14.8457 6.7933C14.8673 6.85185 14.9135 6.89803 14.9721 6.91971L15.7041 7.19058C15.8904 7.25953 15.8904 7.52302 15.7041 7.59197L14.9721 7.86284C14.9135 7.88452 14.8673 7.9307 14.8457 7.9893L14.5748 8.72136C14.5058 8.90762 14.2423 8.90762 14.1734 8.72136L13.9025 7.9893C13.8808 7.9307 13.8346 7.88452 13.7761 7.86284L13.044 7.59197C12.8577 7.52302 12.8577 7.25953 13.044 7.19058L13.7761 6.91971C13.8346 6.89803 13.8808 6.85185 13.9025 6.7933L14.1734 6.06125Z" fill="#3E6FFF"/>
</g>
<path d="M46.6116 16.2344V5.12716C46.6116 4.50316 47.0276 4.08716 47.8596 4.08716C48.6916 4.08716 49.1076 4.50316 49.1076 5.12716V16.2344C49.1076 16.8584 48.6916 17.2744 47.8596 17.2744C47.0276 17.2744 46.6116 16.8584 46.6116 16.2344ZM36.898 20.748V17.0664C36.898 16.4424 37.3972 16.0264 38.2292 16.0264C39.0612 16.0264 39.5604 16.4424 39.5604 17.0664V20.0408C39.5604 20.436 39.7684 20.5816 40.2052 20.5816H48.4004C49.0452 20.5816 49.4612 20.9144 49.4612 21.7672C49.4612 22.62 49.0452 22.9528 48.4004 22.9528H39.4148C37.9588 22.9528 36.898 22.3912 36.898 20.748ZM41.474 9.57836C41.474 7.97676 40.3716 7.01996 38.9156 7.01996C37.4596 7.01996 36.3364 7.97676 36.3364 9.57836C36.3364 11.18 37.4596 12.1576 38.9156 12.1576C40.3716 12.1576 41.474 11.18 41.474 9.57836ZM33.7988 9.57836C33.7988 6.64556 35.8788 4.73196 38.9156 4.73196C41.9732 4.73196 43.97 6.64556 43.97 9.57836C43.97 12.6152 41.9732 14.4456 38.9156 14.4456C35.8788 14.4456 33.7988 12.6152 33.7988 9.57836ZM53.5989 13.5928V5.93836C53.5989 5.18956 54.1605 4.75276 55.0133 4.75276H62.3973C62.9589 4.75276 63.4789 5.21036 63.4789 5.93836C63.4789 6.70796 62.9589 7.08236 62.3973 7.08236H56.2197V12.8232C56.2197 13.5096 56.5109 13.6552 57.3221 13.6552C59.3813 13.6552 61.6901 13.4472 63.1461 13.0728C63.8949 12.8856 64.6229 13.26 64.6229 14.2584C64.6229 14.8616 64.3733 15.2152 63.7077 15.4024C62.0021 15.8808 58.9445 16.0888 56.9061 16.0888C55.2005 16.0888 53.5989 15.8184 53.5989 13.5928ZM56.0325 20.748V18.044C56.0325 17.42 56.5317 17.004 57.3637 17.004C58.1957 17.004 58.6949 17.42 58.6949 18.044V20.0408C58.6949 20.436 58.9029 20.5816 59.3397 20.5816H67.7429C68.3877 20.5816 68.8037 20.9144 68.8037 21.7672C68.8037 22.62 68.3877 22.9528 67.7429 22.9528H58.5493C57.0933 22.9528 56.0325 22.3912 56.0325 20.748ZM66.1621 8.78796V5.12716C66.1621 4.50316 66.5781 4.08716 67.4101 4.08716C68.2421 4.08716 68.6581 4.50316 68.6581 5.12716V16.4424C68.6581 17.0664 68.2421 17.4824 67.4101 17.4824C66.5781 17.4824 66.1621 17.0664 66.1621 16.4424V11.1592H64.7685C64.1237 11.1592 63.7077 10.8264 63.7077 9.97356C63.7077 9.12076 64.1237 8.78796 64.7685 8.78796H66.1621ZM61.7941 11.3048H57.5925C57.0309 11.3048 56.5317 10.9928 56.5317 10.1816C56.5317 9.28716 57.0309 8.99596 57.5925 8.99596H61.7941C62.3557 8.99596 62.8757 9.26636 62.8757 10.1816C62.8757 11.0136 62.3557 11.3048 61.7941 11.3048ZM80.0341 11.7C80.9701 11.7 82.1141 12.8856 82.1141 14.5704C82.1141 16.9624 80.4917 18.5848 77.6213 18.5848C74.5221 18.5848 72.7541 16.7128 72.7541 14.2792C72.7541 12.844 73.2117 11.8456 73.9189 11.2216H72.7541C72.1925 11.2216 71.6933 10.8888 71.6933 10.0776C71.6933 9.18316 72.1925 8.82956 72.7541 8.82956H81.6773C82.2389 8.82956 82.7589 9.16236 82.7589 10.0776C82.7589 10.9096 82.2389 11.2216 81.6773 11.2216H78.4741C76.7061 11.284 75.2501 12.4072 75.2501 14.0504C75.2501 15.5272 76.2485 16.2968 77.6213 16.2968C78.9109 16.2968 79.7013 15.5272 79.7013 14.612C79.7013 13.572 78.8693 13.468 78.8693 12.7816C78.8693 12.1992 79.2645 11.7 80.0341 11.7ZM84.2565 20.6232V5.12716C84.2565 4.50316 84.6725 4.08716 85.5045 4.08716C86.3365 4.08716 86.7525 4.50316 86.7525 5.12716V10.6184H88.3957C89.0405 10.6184 89.4565 10.9512 89.4565 11.804C89.4565 12.6568 89.0405 12.9896 88.3957 12.9896H86.7525V20.6232C86.7525 21.2472 86.3365 21.6632 85.5045 21.6632C84.6725 21.6632 84.2565 21.2472 84.2565 20.6232ZM74.6677 6.99916C74.1477 6.85356 73.8981 6.43756 73.8981 5.87596C73.8981 5.04396 74.5013 4.50316 75.2501 4.64876C76.6645 4.91916 78.0373 5.06476 79.3893 5.06476C79.9301 5.06476 80.4085 5.35596 80.4085 6.14636C80.4085 7.14476 79.8053 7.45676 79.2645 7.45676C77.7669 7.45676 75.8741 7.31116 74.6677 6.99916ZM103.391 20.6232V5.12716C103.391 4.50316 103.807 4.08716 104.639 4.08716C105.471 4.08716 105.887 4.50316 105.887 5.12716V7.97676H107.53C108.175 7.97676 108.591 8.30956 108.591 9.16236C108.591 10.0152 108.175 10.348 107.53 10.348H105.887V13.3848H107.53C108.175 13.3848 108.591 13.7176 108.591 14.5704C108.591 15.4232 108.175 15.756 107.53 15.756H105.887V20.6232C105.887 21.2472 105.471 21.6632 104.639 21.6632C103.807 21.6632 103.391 21.2472 103.391 20.6232ZM92.5125 17.5864C92.1589 17.8776 92.0133 18.0024 91.5349 18.0024C90.8485 18.0024 90.1205 17.3992 90.1205 16.6504C90.1205 16.3592 90.2037 16.0472 90.5157 15.756C93.0741 13.5096 94.7173 10.1608 95.1541 6.39596C95.2373 5.66796 95.6949 5.35596 96.3189 5.35596C97.3173 5.35596 97.7749 5.81356 97.7541 6.70796C97.4005 11.5128 94.9045 15.548 92.5125 17.5864ZM96.9221 13.26C96.8181 13.1144 96.6933 12.8648 96.6933 12.636C96.6933 11.908 97.2133 11.2216 98.0245 11.2216C98.3365 11.2216 98.6693 11.3048 98.8981 11.5336C99.9381 12.4904 101.29 14.3 101.935 15.4856C102.164 15.9016 102.205 16.1512 102.205 16.4632C102.205 17.3992 101.332 17.7736 100.687 17.7736C100.209 17.7736 99.9589 17.6072 99.7093 17.2328C98.7733 15.8184 98.0869 14.82 96.9221 13.26Z" fill="#383B41"/>
</g>
<defs>
<linearGradient id="paint0_linear_454_1562" x1="12.9992" y1="14.5601" x2="12.9992" y2="35.6721" gradientUnits="userSpaceOnUse">
<stop offset="0.245" stop-color="#E2E9FF"/>
<stop offset="1" stop-color="#8BA8FF"/>
</linearGradient>
<clipPath id="clip0_454_1562">
<rect width="108.784" height="26" fill="white"/>
</clipPath>
</defs>
</svg>
